<svg xmlns="http://www.w3.org/2000/svg" xmlns:xlink="http://www.w3.org/1999/xlink" viewBox="0 0 363.55 330.3"><defs><style>.cls-1{fill:none;}.cls-2{clip-path:url(#clip-path);}.cls-3{clip-path:url(#clip-path-3);}.cls-4{fill:#f0e665;}.cls-5{fill:#ffb18f;}.cls-6{fill:#fff;}.cls-7{fill:#231c1c;}.cls-8{fill:#fa654a;}.cls-9{fill:#4b5154;}</style><clipPath id="clip-path" transform="translate(0 0)"><rect class="cls-1" width="363.55" height="330.3"/></clipPath><clipPath id="clip-path-3" transform="translate(0 0)"><rect class="cls-1" width="363.53" height="330.3"/></clipPath></defs><title>グループ化 1</title><g id="レイヤー_2" data-name="レイヤー 2"><g id="レイヤー_1-2" data-name="レイヤー 1"><g id="グループ化_1" data-name="グループ化 1"><g class="cls-2"><g id="グループ化_3" data-name="グループ化 3"><g class="cls-2"><g id="グループ化_2" data-name="グループ化 2"><g class="cls-3"><g id="グループ化_1-2" data-name="グループ化 1-2"><path id="パス_1" data-name="パス 1" class="cls-4" d="M54,205.26C42.5,213,25.34,229.82,9.11,238S.34,255.5,15.68,252.74a392.47,392.47,0,0,0,50.13-13.2c2.34-.81,4,1,4.73,2" transform="translate(0 0)"/><path id="パス_2" data-name="パス 2" class="cls-4" d="M326.85,253.4c2.62,49.08-8.05,76.9-146.16,76.9-123.95,0-156.43-24.68-146.77-96.12,2.53-18.72,18.2-28.89,23.67-52.58C73.38,113.26,101.67,81.39,167,81.39c98.08,0,118.54,42.67,133,96.38C304.38,193.84,325,218,326.85,253.4" transform="translate(0 0)"/><path id="パス_3" data-name="パス 3" class="cls-5" d="M71.17,309.73c-9.76-3.68-21.5-15.65-23.06-19.2s2.79-7.35,8.91-3.34a85.47,85.47,0,0,0,8.18,4.86s-4.15-9-5.84-12.2c-4.12-7.87,5.1-12.49,10.61-3.11,5.13,8.73,8.45,12,8.45,12s2.09-7.83,3.11-12.2c1.52-6.5,6.43-7.83,8.59-.11,3.43,12.33,4.57,19.55.92,28.74-1.59,4-11.41,7.79-19.87,4.59" transform="translate(0 0)"/><path id="パス_4" data-name="パス 4" class="cls-5" d="M294,309.73c9.77-3.68,21.5-15.65,23.06-19.2s-2.79-7.35-8.91-3.34a85.47,85.47,0,0,1-8.18,4.86s4.14-9,5.84-12.2c4.12-7.87-5.1-12.49-10.61-3.11-5.13,8.73-8.45,12-8.45,12s-2.09-7.83-3.11-12.19c-1.52-6.5-6.43-7.84-8.59-.12-3.43,12.33-4.57,19.56-.91,28.74,1.59,4,11.4,7.79,19.86,4.6" transform="translate(0 0)"/><path id="パス_5" data-name="パス 5" class="cls-6" d="M99.87,155.1c-.8,7.32-9.13,12-15.06,11.51-7.33-.59-14.16-5.08-14.27-12.44-.13-9.4,9.89-14.81,17.18-13.87,8.34,1.08,13,7.49,12.15,14.8" transform="translate(0 0)"/><path id="パス_6" data-name="パス 6" class="cls-7" d="M96.18,154.43c-.4,4.54-6.87,7.58-10.54,7.28-4.55-.37-9.22-4-9.72-8.53-.69-6.28,5.89-10.68,12.33-10,6.8.75,8.48,4.94,7.93,11.22" transform="translate(0 0)"/><path id="パス_7" data-name="パス 7" class="cls-6" d="M255.15,154.11c.81,7.32,9.14,12,15.07,11.51,7.33-.59,14.15-5.08,14.26-12.44.14-9.4-9.88-14.81-17.18-13.87-8.34,1.08-13,7.49-12.15,14.8" transform="translate(0 0)"/><path id="パス_8" data-name="パス 8" class="cls-7" d="M258.84,153.44c.4,4.54,6.87,7.58,10.55,7.28,4.54-.37,9.21-4,9.71-8.53.7-6.28-5.89-10.68-12.33-10-6.79.75-8.48,4.94-7.93,11.22" transform="translate(0 0)"/><path id="パス_9" data-name="パス 9" class="cls-4" d="M309.4,207.3c11.49,7.68,28.73,24.44,45,32.56s8.85,17.44-6.5,14.75a390.86,390.86,0,0,1-50.19-13c-2.34-.8-4,1.05-4.72,2" transform="translate(0 0)"/><path id="パス_10" data-name="パス 10" class="cls-4" d="M111.4,94.88c27.84-32.38,70.67-81.62,79.44-92.75s4.39,24.62,4,32.71c2.36-6.07,8.43-14.5,9.44-16.52s5.4-3.71,5.4,1.68-7.08,65.44-7.42,74.88" transform="translate(0 0)"/><path id="パス_11" data-name="パス 11" class="cls-8" d="M93.35,199.27c-1.85,7.8-10.73,16.19-20.58,16.19A14.82,14.82,0,0,1,57.61,201a16.29,16.29,0,0,1,.06-1.71C58.94,187.8,68.2,182.72,78,181.73c13.32-1.35,17.54,8.27,15.35,17.54" transform="translate(0 0)"/><path id="パス_12" data-name="パス 12" class="cls-8" d="M263.63,194.76c1.89,8.51,11,17.66,21,17.66s16.34-9.07,15.44-17.66c-1.3-12.51-10.76-18-20.79-19.13-13.62-1.47-17.93,9-15.69,19.13" transform="translate(0 0)"/><path id="パス_13" data-name="パス 13" class="cls-5" d="M153.54,184.63c0-8.46,17.68-21.14,21.48-21.14,6.16,0,18.8,12.86,18.72,20-.1,10.61-8.89,23.46-20,23.46s-20.17-11.68-20.17-22.29" transform="translate(0 0)"/><path id="パス_14" data-name="パス 14" class="cls-9" d="M158.09,183c0-7.8,13.68-19.5,16.61-19.5,4.78,0,14.54,11.86,14.49,18.42-.08,9.79-6.88,18.88-15.5,18.88s-15.6-8-15.6-17.8" transform="translate(0 0)"/><path id="パス_15" data-name="パス 15" class="cls-5" d="M196.32,173.47c0,10.25-19.94,19.51-24.23,19.51-7,0-21.2-10.21-21.12-18.84.12-12.86,10-33.8,22.6-33.8s22.75,20.26,22.75,33.13" transform="translate(0 0)"/></g></g></g></g></g></g></g></g></g></svg>